<svg width="623" height="352" xmlns="http://www.w3.org/2000/svg" xmlns:xlink="http://www.w3.org/1999/xlink" overflow="hidden"><g transform="translate(-143 -125)"><rect x="144.5" y="126.5" width="621" height="349" stroke="#172C51" stroke-width="1.33333" stroke-miterlimit="8" fill="#EEEEEE"/><rect x="538.5" y="167.5" width="184" height="34" stroke="#172C51" stroke-width="1.33333" stroke-miterlimit="8" fill="#FFF2CC"/><text font-family="Arial,Arial_MSFontService,sans-serif" font-weight="400" font-size="20" transform="translate(605.031 191)">Job A</text><rect x="538.5" y="201.5" width="184" height="35" stroke="#172C51" stroke-width="1.33333" stroke-miterlimit="8" fill="#FBE5D6"/><text font-family="Arial,Arial_MSFontService,sans-serif" font-weight="400" font-size="20" transform="translate(604.478 225)">Job B</text><rect x="538.5" y="236.5" width="184" height="35" stroke="#172C51" stroke-width="1.33333" stroke-miterlimit="8" fill="#D6DCE5"/><text font-family="Arial,Arial_MSFontService,sans-serif" font-weight="400" font-size="20" transform="translate(603.894 260)">Job C</text><rect x="538.5" y="271.5" width="184" height="35" stroke="#172C51" stroke-width="1.33333" stroke-miterlimit="8" fill="#E2F0D9"/><text font-family="Arial,Arial_MSFontService,sans-serif" font-weight="400" font-size="20" transform="translate(603.894 295)">Job D</text><rect x="538.5" y="306.5" width="184" height="149" stroke="#172C51" stroke-width="1.33333" stroke-miterlimit="8" fill="#D0CECE"/><text font-family="Arial,Arial_MSFontService,sans-serif" font-weight="400" font-size="20" transform="translate(549.977 388)">Operating System</text><text font-family="Arial,Arial_MSFontService,sans-serif" font-weight="700" font-size="20" transform="translate(584.8 162)">Memory</text><path d="M173.5 216C173.5 204.678 182.454 195.5 193.5 195.5 204.546 195.5 213.5 204.678 213.5 216 213.5 227.322 204.546 236.5 193.5 236.5 182.454 236.5 173.5 227.322 173.5 216Z" stroke="#172C51" stroke-width="1.33333" stroke-miterlimit="8" fill="#FFF2CC" fill-rule="evenodd"/><text font-family="Arial,Arial_MSFontService,sans-serif" font-weight="700" font-size="20" transform="translate(185.55 223)">A</text><path d="M173.5 262.5C173.5 251.454 182.454 242.5 193.5 242.5 204.546 242.5 213.5 251.454 213.5 262.5 213.5 273.546 204.546 282.5 193.5 282.5 182.454 282.5 173.5 273.546 173.5 262.5Z" stroke="#172C51" stroke-width="1.33333" stroke-miterlimit="8" fill="#FBE5D6" fill-rule="evenodd"/><text font-family="Arial,Arial_MSFontService,sans-serif" font-weight="700" font-size="20" transform="translate(185.55 269)">B</text><path d="M173.5 308C173.5 296.678 182.454 287.5 193.5 287.5 204.546 287.5 213.5 296.678 213.5 308 213.5 319.322 204.546 328.5 193.5 328.5 182.454 328.5 173.5 319.322 173.5 308Z" stroke="#172C51" stroke-width="1.33333" stroke-miterlimit="8" fill="#D6DCE5" fill-rule="evenodd"/><text font-family="Arial,Arial_MSFontService,sans-serif" font-weight="700" font-size="20" transform="translate(185.55 315)">C</text><path d="M173.5 354C173.5 342.678 182.454 333.5 193.5 333.5 204.546 333.5 213.5 342.678 213.5 354 213.5 365.322 204.546 374.5 193.5 374.5 182.454 374.5 173.5 365.322 173.5 354Z" stroke="#172C51" stroke-width="1.33333" stroke-miterlimit="8" fill="#D5E8D4" fill-rule="evenodd"/><text font-family="Arial,Arial_MSFontService,sans-serif" font-weight="700" font-size="20" transform="translate(185.55 361)">D</text><path d="M0.0974824-0.995237 318.39 30.1812 318.195 32.1716-0.0974824 0.995237ZM317.355 27.0654 324.927 31.8262 316.575 35.0273Z" transform="matrix(1 0 0 -1 213 215.826)"/><path d="M0.132866-0.991134 318.453 41.6812 318.187 43.6635-0.132866 0.991134ZM317.529 38.5305 324.927 43.558 316.466 46.4596Z" transform="matrix(1 0 0 -1 213 261.558)"/><path d="M0.164409-0.986392 318.516 52.0756 318.187 54.0484-0.164409 0.986392ZM317.693 48.8972 324.927 54.158 316.378 56.7883Z" transform="matrix(1 0 0 -1 213 308.158)"/><path d="M0.20075-0.979642 318.596 64.2665 318.195 66.2258-0.20075 0.979642ZM317.893 61.06 324.927 66.5846 316.287 68.8971Z" transform="matrix(1 0 0 -1 213 353.585)"/><text font-family="Arial,Arial_MSFontService,sans-serif" font-weight="700" font-size="20" transform="translate(167.89 185)">Jobs</text><path d="M0.425116-0.905139 7.66623 2.49579 6.816 4.30607-0.425116 0.905139ZM13.0971 5.04648 20.3382 8.44741 19.4879 10.2577 12.2468 6.85676ZM25.769 10.9981 33.0101 14.399 32.1599 16.2093 24.9188 12.8084ZM38.441 16.9497 45.6821 20.3506 44.8318 22.1609 37.5907 18.76ZM51.1129 22.9013 58.354 26.3023 57.5038 28.1125 50.2627 24.7116ZM63.7848 28.853 71.026 32.2539 70.1757 34.0642 62.9346 30.6632ZM76.4568 34.8046 83.6979 38.2055 82.8477 40.0158 75.6066 36.6149ZM89.1287 40.7562 96.3698 44.1571 95.5196 45.9674 88.2785 42.5665ZM101.801 46.7078 109.042 50.1088 108.192 51.919 100.95 48.5181ZM114.473 52.6595 121.714 56.0604 120.864 57.8707 113.622 54.4697ZM127.145 58.6111 134.386 62.012 133.535 63.8223 126.294 60.4213ZM139.817 64.5627 147.058 67.9636 146.207 69.7739 138.966 66.373ZM152.488 70.5143 159.73 73.9152 158.879 75.7255 151.638 72.3246ZM165.16 76.4659 172.402 79.8669 171.551 81.6771 164.31 78.2762ZM177.832 82.4176 185.074 85.8185 184.223 87.6288 176.982 84.2278ZM190.504 88.3692 197.745 91.7701 196.895 93.5804 189.654 90.1795ZM203.176 94.3208 210.417 97.7217 209.567 99.532 202.326 96.1311ZM215.848 100.272 223.089 103.673 222.239 105.484 214.998 102.083ZM228.52 106.224 235.761 109.625 234.911 111.435 227.67 108.034ZM241.192 112.176 248.433 115.577 247.583 117.387 240.342 113.986ZM253.864 118.127 261.105 121.528 260.255 123.339 253.014 119.938ZM266.536 124.079 273.777 127.48 272.927 129.29 265.686 125.889ZM279.208 130.031 286.449 133.431 285.599 135.242 278.358 131.841ZM291.88 135.982 299.121 139.383 298.271 141.193 291.03 137.792ZM304.552 141.934 311.793 145.335 310.943 147.145 303.702 143.744ZM317.224 147.885 324.465 151.286 323.615 153.097 316.374 149.696ZM325.244 148.338 330.785 155.359 321.843 155.579Z" fill="#FF0000" transform="matrix(1 0 0 -1 207 339.359)"/><path d="M359.195 255.137 363.137 251.195 370 258.057 376.863 251.195 380.805 255.137 373.943 262 380.805 268.863 376.863 272.805 370 265.943 363.137 272.805 359.195 268.863 366.057 262Z" fill="#C00000" fill-rule="evenodd"/></g></svg>