<svg width="768" height="322" xmlns="http://www.w3.org/2000/svg" xmlns:xlink="http://www.w3.org/1999/xlink" overflow="hidden"><g transform="translate(-29 -55)"><rect x="30.5001" y="58.5001" width="377" height="317" stroke="#172C51" stroke-width="1.33333" stroke-miterlimit="8" fill="#EEEEEE"/><text font-family="Arial,Arial_MSFontService,sans-serif" font-weight="400" font-size="24" transform="translate(142.318 85)">Von Neumann</text><rect x="61.5001" y="98.5001" width="185" height="254" stroke="#172C51" stroke-width="1.33333" stroke-miterlimit="8" fill="#FFFFFF"/><rect x="85.5001" y="136.5" width="136" height="128" stroke="#172C51" stroke-width="1.33333" stroke-miterlimit="8" fill="#E7E6E6"/><text font-family="Arial,Arial_MSFontService,sans-serif" font-weight="700" font-size="13" transform="translate(130.058 154)">Central</text><text font-family="Arial,Arial_MSFontService,sans-serif" font-weight="700" font-size="13" transform="translate(102.391 170)">Processing Unit</text><rect x="103.5" y="182.5" width="103" height="27" stroke="#172C51" stroke-width="1.33333" stroke-miterlimit="8" fill="#CCE5FF"/><text font-family="Arial,Arial_MSFontService,sans-serif" font-weight="700" font-size="13" transform="translate(116.28 201)">Control Unit</text><rect x="103.5" y="216.5" width="103" height="26" stroke="#172C51" stroke-width="1.33333" stroke-miterlimit="8" fill="#CCE5FF"/><text font-family="Arial,Arial_MSFontService,sans-serif" font-weight="700" font-size="13" transform="translate(141.113 234)">ALU</text><rect x="112.5" y="296.5" width="82" height="30" stroke="#172C51" stroke-width="1.33333" stroke-miterlimit="8" fill="#666666"/><text fill="#FFFFFF" font-family="Arial,Arial_MSFontService,sans-serif" font-weight="700" font-size="13" transform="translate(127.474 308)">Memory</text><text fill="#FFFFFF" font-family="Arial,Arial_MSFontService,sans-serif" font-weight="700" font-size="13" transform="translate(139.974 324)">Unit</text><path d="M154 270.667 154 289.543 152 289.543 152 270.667ZM149 272 153 264 157 272ZM157 288.21 153 296.21 149 288.21Z"/><rect x="274.5" y="221.5" width="96" height="54" stroke="#172C51" stroke-width="1.33333" stroke-miterlimit="8" fill="#FFFFFF"/><text font-family="Arial,Arial_MSFontService,sans-serif" font-weight="700" font-size="12" transform="translate(289.371 253)">I/O</text><text font-family="Arial,Arial_MSFontService,sans-serif" font-weight="700" font-size="12" transform="translate(308.705 253)">Device</text><text font-family="Arial,Arial_MSFontService,sans-serif" font-weight="700" font-size="12" transform="translate(347.371 253)">s</text><path d="M254 247 266.742 247 266.742 250 254 250ZM255.5 253 246.5 248.5 255.5 244ZM265.242 244 274.242 248.5 265.242 253Z"/><rect x="418.5" y="58.5001" width="377" height="317" stroke="#172C51" stroke-width="1.33333" stroke-miterlimit="8" fill="#EEEEEE"/><text font-family="Arial,Arial_MSFontService,sans-serif" font-weight="400" font-size="24" transform="translate(564.112 85)">Harvard</text><rect x="450.5" y="98.5001" width="184" height="254" stroke="#172C51" stroke-width="1.33333" stroke-miterlimit="8" fill="#FFFFFF"/><rect x="474.5" y="160.5" width="135" height="128" stroke="#172C51" stroke-width="1.33333" stroke-miterlimit="8" fill="#E7E6E6"/><text font-family="Arial,Arial_MSFontService,sans-serif" font-weight="700" font-size="13" transform="translate(518.515 178)">Central</text><text font-family="Arial,Arial_MSFontService,sans-serif" font-weight="700" font-size="13" transform="translate(490.848 194)">Processing Unit</text><rect x="492.5" y="207.5" width="103" height="26" stroke="#172C51" stroke-width="1.33333" stroke-miterlimit="8" fill="#CCE5FF"/><text font-family="Arial,Arial_MSFontService,sans-serif" font-weight="700" font-size="13" transform="translate(504.737 225)">Control Unit</text><rect x="492.5" y="240.5" width="103" height="27" stroke="#172C51" stroke-width="1.33333" stroke-miterlimit="8" fill="#CCE5FF"/><text font-family="Arial,Arial_MSFontService,sans-serif" font-weight="700" font-size="13" transform="translate(529.57 259)">ALU</text><rect x="500.5" y="310.5" width="83" height="30" stroke="#172C51" stroke-width="1.33333" stroke-miterlimit="8" fill="#666666"/><text fill="#FFFFFF" font-family="Arial,Arial_MSFontService,sans-serif" font-weight="700" font-size="12" transform="translate(510.431 323)">Instruction</text><text fill="#FFFFFF" font-family="Arial,Arial_MSFontService,sans-serif" font-weight="700" font-size="12" transform="translate(518.431 337)">Memory</text><path d="M542 293.667 542 304.89 540 304.89 540 293.667ZM537 295 541 287 545 295ZM545 303.557 541 311.557 537 303.557Z"/><rect x="662.5" y="221.5" width="96" height="54" stroke="#172C51" stroke-width="1.33333" stroke-miterlimit="8" fill="#FFFFFF"/><text font-family="Arial,Arial_MSFontService,sans-serif" font-weight="700" font-size="12" transform="translate(677.828 253)">I/O</text><text font-family="Arial,Arial_MSFontService,sans-serif" font-weight="700" font-size="12" transform="translate(697.161 253)">Device</text><text font-family="Arial,Arial_MSFontService,sans-serif" font-weight="700" font-size="12" transform="translate(735.828 253)">s</text><path d="M642 247 654.742 247 654.742 250 642 250ZM643.5 253 634.5 248.5 643.5 244ZM653.242 244 662.242 248.5 653.242 253Z"/><rect x="500.5" y="106.5" width="83" height="30" stroke="#172C51" stroke-width="1.33333" stroke-miterlimit="8" fill="#666666"/><text fill="#FFFFFF" font-family="Arial,Arial_MSFontService,sans-serif" font-weight="700" font-size="12" transform="translate(528.431 118)">Data</text><text fill="#FFFFFF" font-family="Arial,Arial_MSFontService,sans-serif" font-weight="700" font-size="12" transform="translate(518.431 132)">Memory</text><path d="M542.046 142.66 542.123 153.758 540.123 153.772 540.046 142.673ZM537.055 144.027 541 136 545.055 143.972ZM545.114 152.404 541.169 160.432 537.114 152.46Z"/></g></svg>