<svg width="335" height="318" xmlns="http://www.w3.org/2000/svg" xmlns:xlink="http://www.w3.org/1999/xlink" overflow="hidden"><g transform="translate(-242 -117)"><rect x="271.5" y="118.5" width="277" height="118" stroke="#172C51" stroke-width="1.33333" stroke-miterlimit="8" fill="#EEEEEE"/><text font-family="Arial,Arial_MSFontService,sans-serif" font-weight="700" font-size="24" transform="translate(337.306 157)">Applications</text><text font-family="Arial,Arial_MSFontService,sans-serif" font-weight="400" font-size="24" transform="translate(289.066 186)">(Word Processor, Web</text><text font-family="Arial,Arial_MSFontService,sans-serif" font-weight="400" font-size="24" transform="translate(361.306 215)">Browser)</text><rect x="271.5" y="316.5" width="277" height="117" stroke="#172C51" stroke-width="1.33333" stroke-miterlimit="8" fill="#EEEEEE"/><text font-family="Arial,Arial_MSFontService,sans-serif" font-weight="700" font-size="24" transform="translate(354.639 369)">Hardware</text><text font-family="Arial,Arial_MSFontService,sans-serif" font-weight="400" font-size="24" transform="translate(290.859 398)">(CPU, Memory, Disks)</text><path d="M347 210 347 329.101 345 329.101 345 210ZM350 327.767 346 335.767 342 327.767Z"/><path d="M1-8.3477e-07 1.0001 119.101-0.999901 119.101-1 8.3477e-07ZM4.0001 117.767 0.000104987 125.767-3.9999 117.767Z" transform="matrix(1 0 0 -1 477 335.767)"/><rect x="243.5" y="236.5" width="332" height="80" stroke="#172C51" stroke-width="1.33333" stroke-miterlimit="8" fill="#666666"/><text fill="#FFFFFF" font-family="Arial,Arial_MSFontService,sans-serif" font-weight="700" font-size="24" transform="translate(306.636 284)">Operating System</text></g></svg>